<mxfile host="app.diagrams.net" modified="2023-12-21T02:21:17.223Z" agent="Mozilla/5.0 (Windows NT 10.0; Win64; x64) AppleWebKit/537.36 (KHTML, like Gecko) Chrome/120.0.0.0 Safari/537.36 Edg/120.0.0.0" etag="FqpIr15o1bz_Efus9SYq" version="22.1.11" type="device">
  <diagram name="QL_Order" id="zEH9SzWoz1GsiP_9Y-VP">
    <mxGraphModel dx="1236" dy="590" grid="1" gridSize="10" guides="1" tooltips="1" connect="1" arrows="1" fold="1" page="1" pageScale="1" pageWidth="827" pageHeight="1169" math="0" shadow="0">
      <root>
        <mxCell id="0" />
        <mxCell id="1" parent="0" />
        <mxCell id="i2jk4AY2TEaTobyzSglr-1" value="" style="swimlane;startSize=0;" parent="1" vertex="1">
          <mxGeometry x="249" y="100" width="330" height="240" as="geometry" />
        </mxCell>
        <mxCell id="i2jk4AY2TEaTobyzSglr-7" style="rounded=0;orthogonalLoop=1;jettySize=auto;html=1;exitX=1;exitY=0.5;exitDx=0;exitDy=0;entryX=0;entryY=0.5;entryDx=0;entryDy=0;dashed=1;endArrow=open;endFill=0;" parent="i2jk4AY2TEaTobyzSglr-1" source="i2jk4AY2TEaTobyzSglr-6" target="i2jk4AY2TEaTobyzSglr-3" edge="1">
          <mxGeometry relative="1" as="geometry" />
        </mxCell>
        <mxCell id="i2jk4AY2TEaTobyzSglr-8" value="&amp;lt;&amp;lt;include&amp;gt;&amp;gt;" style="edgeLabel;html=1;align=center;verticalAlign=middle;resizable=0;points=[];" parent="i2jk4AY2TEaTobyzSglr-7" vertex="1" connectable="0">
          <mxGeometry x="-0.1378" y="-4" relative="1" as="geometry">
            <mxPoint x="4" as="offset" />
          </mxGeometry>
        </mxCell>
        <mxCell id="i2jk4AY2TEaTobyzSglr-6" value="Chọn bàn" style="ellipse;whiteSpace=wrap;html=1;" parent="i2jk4AY2TEaTobyzSglr-1" vertex="1">
          <mxGeometry x="20" y="60" width="80" height="70" as="geometry" />
        </mxCell>
        <mxCell id="M7W6oKxWCVWvNQwHn_3g-2" style="rounded=0;orthogonalLoop=1;jettySize=auto;html=1;exitX=0;exitY=1;exitDx=0;exitDy=0;entryX=1;entryY=0;entryDx=0;entryDy=0;dashed=1;endArrow=none;endFill=0;startArrow=open;startFill=0;" parent="i2jk4AY2TEaTobyzSglr-1" source="i2jk4AY2TEaTobyzSglr-3" target="M7W6oKxWCVWvNQwHn_3g-1" edge="1">
          <mxGeometry relative="1" as="geometry" />
        </mxCell>
        <mxCell id="M7W6oKxWCVWvNQwHn_3g-3" value="&amp;lt;&amp;lt;extend&amp;gt;&amp;gt;" style="edgeLabel;html=1;align=center;verticalAlign=middle;resizable=0;points=[];" parent="M7W6oKxWCVWvNQwHn_3g-2" vertex="1" connectable="0">
          <mxGeometry x="0.0043" y="-1" relative="1" as="geometry">
            <mxPoint as="offset" />
          </mxGeometry>
        </mxCell>
        <mxCell id="i2jk4AY2TEaTobyzSglr-3" value="Chọn món" style="ellipse;whiteSpace=wrap;html=1;" parent="i2jk4AY2TEaTobyzSglr-1" vertex="1">
          <mxGeometry x="240" y="60" width="80" height="70" as="geometry" />
        </mxCell>
        <mxCell id="16cWYH-DMZzYz8RwfhqP-1" value="Quản lý order" style="text;html=1;strokeColor=none;fillColor=none;align=center;verticalAlign=middle;whiteSpace=wrap;rounded=0;" parent="i2jk4AY2TEaTobyzSglr-1" vertex="1">
          <mxGeometry x="119" y="20" width="100" height="30" as="geometry" />
        </mxCell>
        <mxCell id="M7W6oKxWCVWvNQwHn_3g-1" value="Hủy món" style="ellipse;whiteSpace=wrap;html=1;" parent="i2jk4AY2TEaTobyzSglr-1" vertex="1">
          <mxGeometry x="119" y="150" width="90" height="70" as="geometry" />
        </mxCell>
        <mxCell id="i2jk4AY2TEaTobyzSglr-9" style="rounded=0;orthogonalLoop=1;jettySize=auto;html=1;exitX=1;exitY=0.3333333333333333;exitDx=0;exitDy=0;exitPerimeter=0;entryX=0;entryY=0.5;entryDx=0;entryDy=0;endArrow=none;endFill=0;" parent="1" source="i2jk4AY2TEaTobyzSglr-2" target="i2jk4AY2TEaTobyzSglr-6" edge="1">
          <mxGeometry relative="1" as="geometry" />
        </mxCell>
        <mxCell id="i2jk4AY2TEaTobyzSglr-2" value="Nhân viên" style="shape=umlActor;verticalLabelPosition=bottom;verticalAlign=top;html=1;outlineConnect=0;" parent="1" vertex="1">
          <mxGeometry x="170" y="130" width="30" height="60" as="geometry" />
        </mxCell>
        <mxCell id="M7W6oKxWCVWvNQwHn_3g-5" style="rounded=0;orthogonalLoop=1;jettySize=auto;html=1;exitX=1;exitY=0.3333333333333333;exitDx=0;exitDy=0;exitPerimeter=0;entryX=0;entryY=0.5;entryDx=0;entryDy=0;endArrow=none;endFill=0;" parent="1" source="M7W6oKxWCVWvNQwHn_3g-4" target="i2jk4AY2TEaTobyzSglr-6" edge="1">
          <mxGeometry relative="1" as="geometry" />
        </mxCell>
        <mxCell id="M7W6oKxWCVWvNQwHn_3g-4" value="Quản lý" style="shape=umlActor;verticalLabelPosition=bottom;verticalAlign=top;html=1;" parent="1" vertex="1">
          <mxGeometry x="170" y="250" width="30" height="60" as="geometry" />
        </mxCell>
        <mxCell id="bUmL0X128_6wpyB68Q4f-1" value="" style="swimlane;startSize=0;" vertex="1" parent="1">
          <mxGeometry x="249" y="100" width="330" height="240" as="geometry" />
        </mxCell>
        <mxCell id="bUmL0X128_6wpyB68Q4f-2" style="rounded=0;orthogonalLoop=1;jettySize=auto;html=1;exitX=1;exitY=0.5;exitDx=0;exitDy=0;entryX=0;entryY=0.5;entryDx=0;entryDy=0;dashed=1;endArrow=open;endFill=0;" edge="1" parent="bUmL0X128_6wpyB68Q4f-1" source="bUmL0X128_6wpyB68Q4f-4" target="bUmL0X128_6wpyB68Q4f-7">
          <mxGeometry relative="1" as="geometry" />
        </mxCell>
        <mxCell id="bUmL0X128_6wpyB68Q4f-3" value="&amp;lt;&amp;lt;include&amp;gt;&amp;gt;" style="edgeLabel;html=1;align=center;verticalAlign=middle;resizable=0;points=[];" vertex="1" connectable="0" parent="bUmL0X128_6wpyB68Q4f-2">
          <mxGeometry x="-0.1378" y="-4" relative="1" as="geometry">
            <mxPoint x="4" as="offset" />
          </mxGeometry>
        </mxCell>
        <mxCell id="bUmL0X128_6wpyB68Q4f-4" value="Chọn bàn" style="ellipse;whiteSpace=wrap;html=1;" vertex="1" parent="bUmL0X128_6wpyB68Q4f-1">
          <mxGeometry x="20" y="60" width="80" height="70" as="geometry" />
        </mxCell>
        <mxCell id="bUmL0X128_6wpyB68Q4f-5" style="rounded=0;orthogonalLoop=1;jettySize=auto;html=1;exitX=0;exitY=1;exitDx=0;exitDy=0;entryX=1;entryY=0;entryDx=0;entryDy=0;dashed=1;endArrow=none;endFill=0;startArrow=open;startFill=0;" edge="1" parent="bUmL0X128_6wpyB68Q4f-1" source="bUmL0X128_6wpyB68Q4f-7" target="bUmL0X128_6wpyB68Q4f-9">
          <mxGeometry relative="1" as="geometry" />
        </mxCell>
        <mxCell id="bUmL0X128_6wpyB68Q4f-6" value="&amp;lt;&amp;lt;extend&amp;gt;&amp;gt;" style="edgeLabel;html=1;align=center;verticalAlign=middle;resizable=0;points=[];" vertex="1" connectable="0" parent="bUmL0X128_6wpyB68Q4f-5">
          <mxGeometry x="0.0043" y="-1" relative="1" as="geometry">
            <mxPoint as="offset" />
          </mxGeometry>
        </mxCell>
        <mxCell id="bUmL0X128_6wpyB68Q4f-7" value="Chọn món" style="ellipse;whiteSpace=wrap;html=1;" vertex="1" parent="bUmL0X128_6wpyB68Q4f-1">
          <mxGeometry x="240" y="60" width="80" height="70" as="geometry" />
        </mxCell>
        <mxCell id="bUmL0X128_6wpyB68Q4f-8" value="Quản lý order" style="text;html=1;strokeColor=none;fillColor=none;align=center;verticalAlign=middle;whiteSpace=wrap;rounded=0;" vertex="1" parent="bUmL0X128_6wpyB68Q4f-1">
          <mxGeometry x="119" y="20" width="100" height="30" as="geometry" />
        </mxCell>
        <mxCell id="bUmL0X128_6wpyB68Q4f-9" value="Hủy món" style="ellipse;whiteSpace=wrap;html=1;" vertex="1" parent="bUmL0X128_6wpyB68Q4f-1">
          <mxGeometry x="119" y="150" width="90" height="70" as="geometry" />
        </mxCell>
        <mxCell id="bUmL0X128_6wpyB68Q4f-10" style="rounded=0;orthogonalLoop=1;jettySize=auto;html=1;exitX=1;exitY=0.3333333333333333;exitDx=0;exitDy=0;exitPerimeter=0;entryX=0;entryY=0.5;entryDx=0;entryDy=0;endArrow=none;endFill=0;" edge="1" parent="1" source="bUmL0X128_6wpyB68Q4f-11" target="bUmL0X128_6wpyB68Q4f-4">
          <mxGeometry relative="1" as="geometry" />
        </mxCell>
        <mxCell id="bUmL0X128_6wpyB68Q4f-11" value="Nhân viên" style="shape=umlActor;verticalLabelPosition=bottom;verticalAlign=top;html=1;outlineConnect=0;" vertex="1" parent="1">
          <mxGeometry x="170" y="130" width="30" height="60" as="geometry" />
        </mxCell>
        <mxCell id="bUmL0X128_6wpyB68Q4f-12" style="rounded=0;orthogonalLoop=1;jettySize=auto;html=1;exitX=1;exitY=0.3333333333333333;exitDx=0;exitDy=0;exitPerimeter=0;entryX=0;entryY=0.5;entryDx=0;entryDy=0;endArrow=none;endFill=0;" edge="1" parent="1" source="bUmL0X128_6wpyB68Q4f-13" target="bUmL0X128_6wpyB68Q4f-4">
          <mxGeometry relative="1" as="geometry" />
        </mxCell>
        <mxCell id="bUmL0X128_6wpyB68Q4f-13" value="Quản lý" style="shape=umlActor;verticalLabelPosition=bottom;verticalAlign=top;html=1;" vertex="1" parent="1">
          <mxGeometry x="170" y="250" width="30" height="60" as="geometry" />
        </mxCell>
      </root>
    </mxGraphModel>
  </diagram>
</mxfile>
